HIERARCHY
ROOT Hips
{
	OFFSET 0.000000 88.474243 0.000000
	CHANNELS 6 Xposition Yposition Zposition Zrotation Yrotation Xrotation 
	JOINT Hips_Spine
	{
		OFFSET 0.000000 0.000000 0.000000
		CHANNELS 3 Zrotation Yrotation Xrotation
		JOINT Spine
		{
			OFFSET 0.005100 8.711998 -0.691000
			CHANNELS 3 Zrotation Yrotation Xrotation
			JOINT Spine1
			{
				OFFSET -0.009200 8.660301 -1.275000
				CHANNELS 3 Zrotation Yrotation Xrotation
				JOINT Spine2
				{
					OFFSET 0.006300 9.852501 -1.857000
					CHANNELS 3 Zrotation Yrotation Xrotation
					JOINT Spine2_Neck
					{
						OFFSET 0.000000 0.000000 0.000000
						CHANNELS 3 Zrotation Yrotation Xrotation
						JOINT Neck
						{
							OFFSET 0.016300 11.420799 -0.263300
							CHANNELS 3 Zrotation Yrotation Xrotation
							End Site #name: Head
							{
								OFFSET -0.019200 9.262405 2.362500
							}
						}
					}
					JOINT Spine2_LeftShoulder
					{
						OFFSET 0.000000 0.000000 0.000000
						CHANNELS 3 Zrotation Yrotation Xrotation
						JOINT LeftShoulder
						{
							OFFSET 5.616900 6.732201 -0.345700
							CHANNELS 3 Zrotation Yrotation Xrotation
							JOINT LeftArm
							{
								OFFSET 10.664888 -0.183372 -2.440700
								CHANNELS 3 Zrotation Yrotation Xrotation
								JOINT LeftForeArm
								{
									OFFSET 27.459126 0.000000 0.000000
									CHANNELS 3 Zrotation Yrotation Xrotation
									End Site #name: LeftHand
									{
										OFFSET 21.306858 0.000000 0.000000
									}
								}
							}
						}
					}
					JOINT Spine2_RightShoulder
					{
						OFFSET 0.000000 0.000000 0.000000
						CHANNELS 3 Zrotation Yrotation Xrotation
						JOINT RightShoulder
						{
							OFFSET -5.580300 6.737503 -0.344400
							CHANNELS 3 Zrotation Yrotation Xrotation
							JOINT RightArm
							{
								OFFSET -10.679335 -0.188484 -2.383900
								CHANNELS 3 Zrotation Yrotation Xrotation
								JOINT RightForeArm
								{
									OFFSET -27.503529 0.000000 0.000000
									CHANNELS 3 Zrotation Yrotation Xrotation
									End Site #name: RightHand
									{
										OFFSET -21.306808 0.000000 0.000000
									}
								}
							}
						}
					}
				}
			}
		}
	}
	JOINT Hips_LeftUpLeg
	{
		OFFSET 0.000000 0.000000 0.000000
		CHANNELS 3 Zrotation Yrotation Xrotation
		JOINT LeftUpLeg
		{
			OFFSET 6.857700 -6.739601 0.312100
			CHANNELS 3 Zrotation Yrotation Xrotation
			JOINT LeftLeg
			{
				OFFSET -0.367590 -34.731552 -4.572400
				CHANNELS 3 Zrotation Yrotation Xrotation
				End Site #name: LeftFoot
				{
					OFFSET 0.367590 -34.656704 -6.067400
				}
			}
		}
	}
	JOINT Hips_RightUpLeg
	{
		OFFSET 0.000000 0.000000 0.000000
		CHANNELS 3 Zrotation Yrotation Xrotation
		JOINT RightUpLeg
		{
			OFFSET -6.876100 -6.733299 0.301000
			CHANNELS 3 Zrotation Yrotation Xrotation
			JOINT RightLeg
			{
				OFFSET 0.347353 -34.795158 -4.515900
				CHANNELS 3 Zrotation Yrotation Xrotation
				End Site #name: RightFoot
				{
					OFFSET -0.347353 -34.589367 -6.070300
				}
			}
		}
	}
}
MOTION
Frames: 10
Frame Time: 0.041667
0.057627 0.003286 0.017989 -0.786813 -3.186764 -2.378274 0.000000 0.000000 0.000000 0.792289 1.043194 7.701237 -0.752433 0.805799 0.530675 0.000000 0.000000 0.000000 -0.412663 -0.029282 -1.867455 1.054023 -1.858036 4.450565 -1.677827 -0.298177 0.145785 -6.253556 -5.421200 1.608818 -62.494508 3.640373 45.089034 0.106329 -25.448476 -0.301228 -0.634484 0.452277 0.469130 13.196020 -0.879782 1.974801 61.650843 16.404404 15.424348 179.157481 57.543870 179.883530 0.000000 0.000000 0.000000 0.250154 8.836710 -15.868926 3.975370 5.695674 18.807234 0.000000 0.000000 0.000000 -2.750762 -10.570737 -10.208898 -1.815896 -2.764302 16.851035 
0.092929 0.043825 -0.034766 -0.840813 -3.025021 -2.192715 0.000000 0.000000 0.000000 -0.665380 0.338965 3.489202 -0.948952 0.410653 1.266878 0.000000 0.000000 0.000000 -0.751278 -0.292900 0.292490 2.041350 -1.349959 4.802820 -0.626487 -0.395160 1.189298 -5.327940 2.290325 0.394054 -59.781343 6.014619 50.444641 0.162042 -21.371196 0.259722 -1.255656 -0.113179 0.976388 11.964125 0.885774 1.143716 59.417972 24.632998 5.539023 179.337562 45.052439 179.855233 0.000000 0.000000 -0.000000 0.794421 10.448024 -15.100920 3.251171 5.644763 17.540337 0.000000 0.000000 0.000000 -2.938492 -10.583992 -10.619352 -1.977312 -3.068728 16.685767 
0.202206 0.038414 -0.094516 -1.074588 -2.901937 -2.036866 0.000000 0.000000 0.000000 -0.680511 0.282891 2.627256 -0.783782 0.192998 1.871686 0.000000 0.000000 0.000000 -0.914782 -0.316825 0.771150 1.985036 -1.168137 4.516771 -0.901797 -0.072840 2.457753 -7.380252 4.468561 -0.006461 -60.920147 2.778040 43.823795 0.063241 -15.519936 0.128861 -1.245754 -0.134488 1.594607 12.989850 0.814960 0.940724 54.083844 23.888475 1.911953 179.443243 48.825635 -179.869305 0.000000 0.000000 -0.000000 1.185066 11.616390 -15.445795 3.381335 5.677886 17.793453 -0.000000 0.000000 0.000000 -2.861738 -10.288790 -10.778681 -1.480925 -2.964614 16.492059 
0.338762 0.028933 -0.159822 -1.315785 -2.815603 -1.884039 0.000000 0.000000 0.000000 -0.920575 0.441957 2.763311 -0.852722 0.145656 2.633594 0.000000 0.000000 0.000000 -0.987327 -0.279061 1.496002 0.981734 -1.471007 5.815255 -1.044195 -0.113723 2.855955 -6.779192 5.272710 -0.309616 -63.853950 -0.234479 40.210362 0.037002 -12.060682 0.174118 -1.210528 -0.138483 2.211451 13.321907 0.036083 0.827813 51.463060 28.507320 -1.418716 179.374771 45.644609 -179.797132 -0.000000 0.000000 -0.000000 1.386704 12.157272 -15.731113 3.591568 5.691418 17.967571 -0.000000 0.000000 0.000000 -2.761719 -10.188248 -10.933473 -0.937874 -2.380938 16.620370 
0.501204 0.024232 -0.223085 -1.510152 -2.813989 -1.791473 0.000000 0.000000 0.000000 -1.151047 0.689626 3.068435 -1.065824 0.109865 2.889171 0.000000 0.000000 0.000000 -1.221662 -0.242274 1.746641 0.418662 -1.850175 6.981053 -1.190256 -0.248230 3.007470 -6.127225 5.351456 -0.328776 -65.895338 -2.167852 38.215638 0.040237 -10.261458 0.178353 -1.410593 -0.137811 2.625117 14.009874 -1.137592 0.632402 50.523493 31.363185 -2.447102 179.440252 42.394521 -179.723804 -0.000000 0.000000 -0.000000 1.499432 12.356420 -15.938001 3.684407 5.598424 18.229381 -0.000000 0.000000 0.000000 -2.714463 -10.057651 -11.021774 -0.597866 -2.115565 16.701320 
0.671004 0.021700 -0.283342 -1.648173 -2.854314 -1.717465 0.000000 0.000000 0.000000 -1.241661 0.776966 3.345621 -1.257160 0.121264 3.006746 0.000000 0.000000 0.000000 -1.406002 -0.261205 1.900868 0.429535 -2.162401 7.672533 -1.301595 -0.315461 3.197277 -5.619394 5.183894 -0.277851 -67.719299 -3.488746 36.889855 0.066791 -9.167115 0.163798 -1.592306 -0.169506 2.772849 14.141137 -1.579151 0.539508 50.703938 32.874101 -2.662977 179.413740 41.662670 -179.711391 -0.000000 0.000000 -0.000000 1.555485 12.473746 -16.077492 3.698962 5.458207 18.455330 -0.000000 0.000000 0.000000 -2.668627 -9.941273 -11.006357 -0.378517 -1.930837 16.561050 
0.833455 0.019898 -0.341634 -1.757771 -2.891642 -1.637263 0.000000 -0.000000 0.000000 -1.188461 0.787770 3.570400 -1.343544 0.119085 3.061756 0.000000 0.000000 0.000000 -1.517534 -0.264741 1.987998 0.730605 -2.370941 8.056727 -1.382318 -0.326113 3.284373 -5.184901 5.376024 -0.287603 -68.761719 -4.297313 35.728390 0.091088 -9.078949 0.188542 -1.697083 -0.175220 2.784600 13.864125 -1.687294 0.515643 51.221904 33.234372 -2.287771 179.399071 41.634600 -179.705845 -0.000000 0.000000 -0.000000 1.582276 12.535037 -16.198718 3.667688 5.293821 18.581007 -0.000000 0.000000 0.000000 -2.624288 -9.881057 -11.025097 -0.257124 -1.760857 16.437120 
0.973960 0.017616 -0.396406 -1.866079 -2.908131 -1.549558 0.000000 -0.000000 0.000000 -1.140316 0.814195 3.692065 -1.391353 0.125537 3.073999 0.000000 0.000000 0.000000 -1.591016 -0.238593 1.994520 0.989115 -2.497749 8.316857 -1.436172 -0.287579 3.295366 -4.908463 5.661270 -0.324238 -69.026488 -4.570260 35.122980 0.098861 -9.560990 0.202765 -1.761658 -0.142799 2.752537 13.297424 -1.625439 0.539934 51.720123 32.799590 -1.741950 179.405294 42.323839 -179.697442 -0.000000 0.000000 -0.000000 1.598473 12.558768 -16.324355 3.634589 5.107256 18.635913 -0.000000 0.000000 0.000000 -2.560769 -9.858070 -11.114896 -0.200095 -1.630063 16.423856 
1.077896 0.014362 -0.445093 -1.984792 -2.926020 -1.467910 0.000000 -0.000000 0.000000 -1.115646 0.832845 3.749207 -1.421471 0.139876 3.074536 0.000000 0.000000 0.000000 -1.653749 -0.210990 1.973561 1.189015 -2.586320 8.465611 -1.491509 -0.235897 3.286498 -4.732791 5.989809 -0.372666 -68.945557 -4.356606 34.873162 0.096074 -10.016931 0.206698 -1.817031 -0.109271 2.716668 12.610813 -1.460330 0.594001 51.823107 32.254414 -1.534946 179.408423 43.163569 -179.702402 -0.000000 0.000000 -0.000000 1.628423 12.563720 -16.453654 3.602978 4.922803 18.678331 -0.000000 0.000000 0.000000 -2.481514 -9.844151 -11.223826 -0.163558 -1.539500 16.463686 
1.148753 0.010491 -0.487745 -2.088508 -2.966491 -1.402687 0.000000 -0.000000 0.000000 -1.117250 0.846018 3.821480 -1.453693 0.159799 3.065977 0.000000 0.000000 0.000000 -1.718586 -0.194811 1.939746 1.319511 -2.632899 8.528148 -1.549996 -0.199701 3.258775 -4.630222 6.264607 -0.424509 -68.729744 -3.932979 34.874577 0.090464 -10.400188 0.210010 -1.882316 -0.073944 2.678467 11.973961 -1.313745 0.652768 51.479963 31.858508 -1.818484 179.411162 43.581821 -179.704012 0.000000 0.000000 -0.000000 1.676545 12.564285 -16.556900 3.578486 4.759849 18.708934 -0.000000 0.000000 0.000000 -2.402068 -9.821251 -11.323154 -0.130359 -1.474448 16.535535 
